<?xml version="1.0" standalone="no"?>
<!DOCTYPE svg PUBLIC "-//W3C//DTD SVG 20010904//EN"
 "http://www.w3.org/TR/2001/REC-SVG-20010904/DTD/svg10.dtd">
<svg version="1.0" xmlns="http://www.w3.org/2000/svg"
 width="1024.000000pt" height="1024.000000pt" viewBox="0 0 1024.000000 1024.000000"
 preserveAspectRatio="xMidYMid meet">
<metadata>
Created by potrace 1.14, written by Peter Selinger 2001-2017
</metadata>
<g transform="translate(0.000000,1024.000000) scale(0.100000,-0.100000)"
fill="#000000" stroke="none">
<path d="M3950 10168 c0 -4 -4 -7 -8 -5 -11 3 -82 -46 -82 -57 0 -5 -6 -17
-14 -25 -20 -24 -49 -119 -43 -147 2 -13 1 -24 -2 -24 -3 0 -6 -19 -5 -42 0
-24 -4 -56 -8 -73 -20 -75 -26 -352 -15 -695 6 -209 15 -282 38 -345 12 -32
15 -53 9 -59 -19 -19 -11 -65 13 -81 15 -10 23 -23 21 -38 -1 -12 -3 -34 -3
-49 -1 -23 -7 -29 -43 -39 -44 -11 -250 -89 -303 -114 -16 -7 -75 -35 -130
-60 -279 -129 -624 -353 -885 -575 -312 -264 -616 -619 -827 -965 -221 -363
-368 -715 -469 -1122 -25 -100 -46 -190 -48 -200 -2 -10 -7 -36 -11 -58 -5
-22 -9 -44 -10 -50 -1 -11 -16 -101 -21 -127 -1 -9 -6 -48 -9 -85 -4 -37 -9
-77 -11 -88 -23 -108 -22 -638 1 -790 2 -16 9 -73 15 -125 7 -52 21 -140 32
-195 11 -55 22 -109 24 -120 68 -352 261 -869 427 -1142 20 -33 37 -64 37 -67
0 -7 189 -297 200 -306 3 -3 32 -41 64 -85 51 -68 124 -160 161 -201 6 -6 37
-41 69 -78 100 -113 242 -251 366 -356 36 -30 67 -57 70 -61 3 -3 50 -39 105
-80 55 -41 102 -76 105 -79 11 -13 269 -180 335 -217 264 -151 561 -281 795
-348 160 -47 190 -55 220 -60 18 -3 37 -8 41 -11 4 -2 72 -18 151 -34 130 -28
212 -42 323 -56 22 -3 54 -7 70 -9 135 -19 543 -26 720 -12 103 8 225 23 305
37 30 5 73 12 95 16 131 19 421 93 604 153 345 114 677 278 971 481 122 84
164 114 170 120 3 3 23 19 45 35 138 103 435 382 555 520 325 376 583 801 742
1225 28 74 59 163 69 197 11 35 28 93 39 130 11 38 22 77 24 88 2 11 9 40 16
65 7 25 14 56 17 70 2 14 8 41 13 60 5 19 12 51 15 70 3 19 10 53 15 75 5 22
12 63 15 90 4 28 10 77 15 110 5 33 12 89 15 125 3 36 8 88 11 115 6 64 6 455
0 520 -3 28 -8 79 -11 115 -19 211 -87 564 -145 755 -5 17 -25 82 -45 145 -19
63 -40 124 -45 135 -5 11 -20 49 -33 85 -59 159 -245 537 -269 548 -5 2 -8 8
-8 13 0 9 -26 52 -119 194 -14 22 -29 42 -32 45 -3 3 -20 28 -39 55 -38 57
-155 210 -183 240 -11 11 -31 36 -46 54 -28 37 -40 50 -172 187 -117 120 -216
211 -328 300 -13 11 -28 24 -35 29 -25 23 -215 163 -278 205 -38 25 -68 48
-68 51 0 9 -71 113 -82 120 -6 3 -9 8 -7 10 3 5 -54 93 -63 97 -5 2 -8 8 -8
13 0 6 -9 19 -20 31 -11 12 -20 28 -20 35 0 7 -3 13 -7 13 -5 0 -24 25 -43 55
-19 30 -38 55 -42 55 -5 0 -8 6 -8 14 0 8 -4 16 -8 18 -5 2 -42 53 -82 113
-40 61 -100 142 -132 182 -32 39 -58 74 -58 78 0 4 -6 12 -12 19 -7 8 -31 35
-53 61 -22 27 -45 53 -50 59 -6 6 -18 24 -28 39 -15 24 -24 27 -57 25 -22 -1
-40 -7 -41 -12 -5 -45 -9 -91 -13 -151 -3 -38 -7 -92 -10 -120 -3 -27 -8 -86
-11 -130 -3 -44 -9 -98 -12 -120 -3 -22 -6 -52 -6 -67 0 -18 -4 -25 -11 -19
-18 13 -306 95 -406 115 -14 3 -79 16 -145 30 -66 13 -144 28 -174 31 -30 4
-61 8 -70 10 -42 7 -195 23 -247 24 -11 1 -43 22 -69 47 -27 25 -69 60 -94 77
-26 17 -51 36 -57 42 -6 5 -22 19 -35 31 -13 11 -46 47 -74 78 -63 73 -153
163 -274 274 -125 115 -251 244 -417 425 -6 7 -27 35 -48 62 -21 28 -42 52
-46 55 -13 9 -120 168 -120 178 0 6 -4 12 -8 14 -10 4 -88 135 -102 172 -8 22
-15 26 -50 24 -22 -1 -40 -5 -40 -10z"/>
</g>
</svg>
